<svg id="Calque_1" data-name="Calque 1" xmlns="http://www.w3.org/2000/svg" viewBox="0 0 286 261.94"><defs><style>.cls-1{fill:#2948ff;opacity:0.3;}.cls-2{fill:#5f6dfb;}.cls-3{fill:#3868f7;}</style></defs><rect class="cls-1" y="176.94" width="223" height="85" rx="20"/><rect class="cls-1" y="107.94" width="223" height="56" rx="20"/><rect class="cls-1" y="38.94" width="223" height="56" rx="20"/><circle class="cls-2" cx="30" cy="135.94" r="10"/><circle class="cls-2" cx="30" cy="66.94" r="10"/><circle class="cls-2" cx="64" cy="135.94" r="10"/><path class="cls-3" d="M283.66,76.41a13.61,13.61,0,0,0-1.61-1.07,13.66,13.66,0,0,1-6.51-4.9A13.72,13.72,0,0,1,276,54.07a15.83,15.83,0,0,1,7.11-5.17,4.88,4.88,0,0,0,2.08-1.67,4.66,4.66,0,0,0,.74-3.56A31.54,31.54,0,0,0,283.86,36a15.79,15.79,0,0,0-3.56-5.71A4.09,4.09,0,0,0,277.68,29a4.15,4.15,0,0,0-2.61.53,17.2,17.2,0,0,1-8.72,1.55,12,12,0,0,1-7.92-3.55,13.45,13.45,0,0,1-3.89-7.52,14.21,14.21,0,0,1,1.07-8.18,8.22,8.22,0,0,0,.54-1.81,3.06,3.06,0,0,0-.41-2.35,12.75,12.75,0,0,0-2.89-3.22,17,17,0,0,0-3.95-2.41A25.87,25.87,0,0,0,244.53.6a17.46,17.46,0,0,0-4.1-.54,3.33,3.33,0,0,0-2.35,1.14,8.88,8.88,0,0,0-1.67,2.2A14,14,0,0,1,231.32,10,13.87,13.87,0,0,1,223,12.66a12.1,12.1,0,0,1-7.91-2.74,16.15,16.15,0,0,1-4.83-6.37,6.51,6.51,0,0,0-1.4-2.35A3.45,3.45,0,0,0,206.11.06a18.49,18.49,0,0,0-3.63.47,28.63,28.63,0,0,0-4.7,1.41,21.78,21.78,0,0,0-4.49,2.35,7.72,7.72,0,0,0-2.89,3.29,2.93,2.93,0,0,0-.2,1.88,14.94,14.94,0,0,0,.47,1.87c.09.54.19,1.43.33,2.68a22.19,22.19,0,0,1,0,4.16,21.84,21.84,0,0,1-.94,4.64,9.68,9.68,0,0,1-2.35,4A13.62,13.62,0,0,1,180,30.6a16.39,16.39,0,0,1-8.39-1,11.78,11.78,0,0,0-2.21-.54,3.1,3.1,0,0,0-2.08.54,8,8,0,0,0-2.47,2.47,22.84,22.84,0,0,0-2,3.69,27.27,27.27,0,0,0-1.41,4.17,16.55,16.55,0,0,0-.53,3.89,6.82,6.82,0,0,0,.8,3.15,3.73,3.73,0,0,0,2,1.94A19.84,19.84,0,0,1,171,54a11.64,11.64,0,0,1,3.22,8.18A12.24,12.24,0,0,1,171,70.44a19.17,19.17,0,0,1-7.25,5.3q-2.28.8-2.68,3.75a11.19,11.19,0,0,0,.27,4.1,28.86,28.86,0,0,0,1.49,4.81,28.07,28.07,0,0,0,2.29,4.29,6,6,0,0,0,2.75,2.48,5.5,5.5,0,0,0,3.76.26,22.75,22.75,0,0,1,5.77-1.07,18.94,18.94,0,0,1,5.09.47A8.77,8.77,0,0,1,187,97.45a12.27,12.27,0,0,1,3.42,7.32,13.28,13.28,0,0,1-1.14,7,8.22,8.22,0,0,0-1,3.56,4.26,4.26,0,0,0,.74,2.21,11.49,11.49,0,0,0,2.83,2.68,21.86,21.86,0,0,0,4.22,2.35,40.12,40.12,0,0,0,4.7,1.68A15.83,15.83,0,0,0,205,125a5.9,5.9,0,0,0,2.95-.74,4.62,4.62,0,0,0,2-2.35,16.28,16.28,0,0,1,5.17-7,12.7,12.7,0,0,1,8.25-3,12.3,12.3,0,0,1,8.24,3,16.39,16.39,0,0,1,5,7.17h.14a5.19,5.19,0,0,0,1.49,2,3.44,3.44,0,0,0,2.28.94,18.23,18.23,0,0,0,4-.53,23.68,23.68,0,0,0,4.37-1.49,26.24,26.24,0,0,0,3.83-2.08,10,10,0,0,0,2.55-2.2,5.07,5.07,0,0,0,.41-5.37,15.06,15.06,0,0,1-1.21-8.18,13.16,13.16,0,0,1,3.75-7.65,8.27,8.27,0,0,1,3.56-2.28,19.9,19.9,0,0,1,4.16-.87,15.59,15.59,0,0,1,4.1.14,29.29,29.29,0,0,1,3.36.74,7.83,7.83,0,0,0,2.68.54,6.47,6.47,0,0,0,2.82-.81,8.19,8.19,0,0,0,3-2.68A19.91,19.91,0,0,0,284.19,88a22.73,22.73,0,0,0,1.34-4.63,11.47,11.47,0,0,0,.15-3.9A6.08,6.08,0,0,0,283.66,76.41ZM202,62.46A21.5,21.5,0,1,1,223.5,84,21.51,21.51,0,0,1,202,62.46Z" transform="translate(0 -0.06)"/></svg>